<svg width="94" height="94" viewBox="0 0 94 94" fill="none" xmlns="http://www.w3.org/2000/svg">
<g clip-path="url(#clip0_0_562)">
<path d="M86.6864 47.2947C86.6864 69.3461 68.854 87.1968 46.8881 87.1968C24.9221 87.1968 7.08972 69.3461 7.08972 47.2947C7.08972 25.2434 24.9221 7.3927 46.8881 7.3927C68.854 7.3927 86.6864 25.2434 86.6864 47.2947Z" stroke="#0A2640" stroke-width="13.3928"/>
<mask id="mask0_0_562" style="mask-type:alpha" maskUnits="userSpaceOnUse" x="-28" y="-17" width="74" height="122">
<path d="M45.4051 42.9977L27.2689 -16.1592L-27.6345 53.5732L1.54836 104.468L45.4051 42.9977Z" fill="#C4C4C4"/>
</mask>
<g mask="url(#mask0_0_562)">
<path d="M86.6874 47.294C86.6874 69.3454 68.855 87.196 46.889 87.196C24.9231 87.196 7.0907 69.3454 7.0907 47.294C7.0907 25.2426 24.9231 7.39197 46.889 7.39197C68.855 7.39197 86.6874 25.2426 86.6874 47.294Z" stroke="#0DBBFC" stroke-width="13.3928"/>
</g>
<mask id="mask1_0_562" style="mask-type:alpha" maskUnits="userSpaceOnUse" x="21" y="-22" width="91" height="85">
<path d="M51.5436 48.1816L111.54 62.8724L79.8347 -20.0868L21.2717 -21.0403L51.5436 48.1816Z" fill="#C4C4C4"/>
</mask>
<g mask="url(#mask1_0_562)">
<path d="M26.4887 81.5346C7.59646 70.2492 1.39623 45.7626 12.6425 26.8414C23.8888 7.92029 48.3214 1.73223 67.2136 13.0175C86.1058 24.3029 92.3061 48.7895 81.0598 67.7107C69.8135 86.6318 45.3809 92.8199 26.4887 81.5346Z" stroke="#69E6A6" stroke-width="13.3928"/>
</g>
</g>
<defs>
<clipPath id="clip0_0_562">
<rect width="93.0378" height="93.0378" fill="white" transform="translate(0.305176 0.772705)"/>
</clipPath>
</defs>
</svg>
